<?xml version="1.0" encoding="iso-8859-1"?>
<!-- Generator: Adobe Illustrator 19.0.0, SVG Export Plug-In . SVG Version: 6.00 Build 0)  -->
<svg version="1.1" id="Capa_1" xmlns="http://www.w3.org/2000/svg" xmlns:xlink="http://www.w3.org/1999/xlink" x="0px" y="0px"
	 viewBox="0 0 512 512" style="enable-background:new 0 0 512 512;" xml:space="preserve">
<circle style="fill:#4EC4AE;" cx="256" cy="256" r="256"/>
<circle style="fill:#FE6782;" cx="256" cy="256" r="256"/>
<path style="fill:#FDD36E;" d="M400.8,5.641C380.689-5.97,354.973,0.92,343.362,21.032c-11.611,20.111-4.721,45.827,15.391,57.439
	c20.111,11.611,45.827,4.72,57.439-15.391C427.802,42.968,420.912,17.252,400.8,5.641z M369.265,60.262
	c-10.056-5.806-13.501-18.664-7.695-28.719c5.806-10.056,18.663-13.501,28.719-7.695s13.501,18.664,7.695,28.719
	S379.32,66.068,369.265,60.262z"/>
<path style="fill:#F7A15F;" d="M349.933,103.488c-8.243,0-13.535-8.982-9.355-16.221l20.185-34.96
	c2.985-5.173,9.599-6.943,14.771-3.958c5.171,2.986,6.944,9.599,3.958,14.771l-20.185,34.96
	C357.305,101.549,353.67,103.488,349.933,103.488z"/>
<circle style="fill:#96DFF8;" cx="150.17" cy="437.15" r="54.14"/>
<path style="fill:#80CBF0;" d="M150.17,437.15c0-20.036,10.892-37.516,27.07-46.878c-7.965-4.609-17.205-7.261-27.07-7.261
	c-29.901,0-54.14,24.239-54.14,54.139s24.239,54.139,54.14,54.139c9.864,0,19.105-2.651,27.07-7.261
	C161.062,474.666,150.17,457.185,150.17,437.15z"/>
<path style="fill:#FDD36E;" d="M357.097,78.742c-73.739-42.573-168.905-17.074-211.479,56.666L90.192,231.41
	c-22.142,38.351-58.263,53.438-82.636,59.368c-1.868,0.455-3.498,1.261-4.871,2.312c1.235,8.512,2.889,16.887,4.94,25.106
	c27.613,23.683,77.606,62.629,150.7,104.83c74.948,43.271,134.778,67.215,168.689,78.986c7.213-2.079,14.293-4.47,21.23-7.151
	c0.685-2.276,0.754-4.802-0.004-7.39c-7.051-24.073-12.046-62.897,10.096-101.249l55.427-96.002
	C456.336,216.481,430.836,121.315,357.097,78.742z"/>
<g>
	<path style="fill:#FBB659;" d="M145.618,135.408L90.192,231.41c-22.142,38.351-58.263,53.438-82.636,59.368
		c-1.868,0.455-3.498,1.261-4.871,2.312c1.236,8.512,2.889,16.888,4.94,25.106c9.103,7.807,20.634,17.27,34.627,27.964
		c0.441-5.538,4.136-10.839,10.247-12.457c24.729-6.545,61.488-22.738,84.538-62.663l57.701-99.941
		c39.003-67.555,118.487-97.313,187.254-74.469C308.493,31.804,193.998,51.612,145.618,135.408z"/>
	<path style="fill:#FBB659;" d="M343.284,430.802c-35.182-13.427-86.57-35.935-148.169-71.499S88.33,290.489,59.11,266.734
		c-17.681,13.473-36.776,20.448-51.555,24.043c-1.868,0.455-3.498,1.261-4.871,2.312c1.235,8.512,2.889,16.887,4.94,25.106
		c27.613,23.683,77.606,62.629,150.7,104.83c74.948,43.271,134.778,67.215,168.689,78.986c7.213-2.079,14.293-4.47,21.23-7.151
		c0.685-2.276,0.754-4.802-0.004-7.39C343.964,472.875,340.457,452.851,343.284,430.802z"/>
</g>
<path style="fill:#F7A15F;" d="M59.11,266.734c-2.268,1.479-13.537,10.831-33.506,18.444c-15.906,6.052-18.712,4.692-22.92,7.911
	c1.235,8.512,2.889,16.887,4.94,25.106c11.982,10.272,22.239,18.444,34.627,27.965c0.441-5.538,4.136-10.839,10.247-12.457
	c16.164-4.278,37.467-12.683,56.722-29.138C89.159,290.43,72.462,277.589,59.11,266.734z"/>
<g>
	<circle style="fill:#FCDC95;" cx="381.99" cy="212.67" r="22.644"/>
	<circle style="fill:#FCDC95;" cx="379.78" cy="162.6" r="11.57"/>
</g>
<g>
</g>
<g>
</g>
<g>
</g>
<g>
</g>
<g>
</g>
<g>
</g>
<g>
</g>
<g>
</g>
<g>
</g>
<g>
</g>
<g>
</g>
<g>
</g>
<g>
</g>
<g>
</g>
<g>
</g>
</svg>
