<?xml version="1.0" encoding="iso-8859-1"?>
<!-- Generator: Adobe Illustrator 19.0.0, SVG Export Plug-In . SVG Version: 6.00 Build 0)  -->
<svg version="1.1" id="Layer_1" xmlns="http://www.w3.org/2000/svg" xmlns:xlink="http://www.w3.org/1999/xlink" x="0px" y="0px"
	 viewBox="0 0 511.999 511.999" style="enable-background:new 0 0 511.999 511.999;" xml:space="preserve">
<path style="fill:#C17053;" d="M438.61,158.774L266.037,59.139c-6.327-3.652-14.12-3.652-20.448,0L73.014,158.774
	c-6.327,3.653-10.224,10.404-10.224,17.708v199.271c0,7.306,3.897,14.056,10.224,17.708l172.574,99.637
	c3.163,1.826,6.694,2.74,10.224,2.74c3.53,0,7.061-0.913,10.224-2.74l172.574-99.637c6.327-3.652,10.224-10.403,10.224-17.708
	V176.483C448.834,169.177,444.935,162.426,438.61,158.774z"/>
<path style="fill:#B26544;" d="M255.811,495.838c3.53,0,7.061-0.913,10.224-2.74l169.688-97.971l2.888-1.668
	c1.388-0.801,2.652-1.761,3.791-2.833c-4.771,2.131-11.957,5.074-20.778,7.861C276.539,447.144,257.011,288.67,255.81,276.118
	h-20.071v211.294l9.864,5.696C248.764,494.927,252.288,495.838,255.811,495.838z"/>
<path style="fill:#A55E3A;" d="M186.237,312.853L62.789,241.581v134.172c0,7.305,3.897,14.055,10.223,17.707l2.888,1.668
	l137.707,79.507l31.981,18.464c3.163,1.825,6.693,2.74,10.223,2.74v-219.72l-0.297-0.173L186.237,312.853z"/>
<path style="fill:#EFD89C;" d="M176.599,383.316l-0.77-0.444l-0.002-0.001l0,0l-48.752-28.149c-4.286-2.471-4.246,3.079-4.246,3.079
	v64.461l56.434,32.58v-65.54C179.264,385.758,177.612,384.037,176.599,383.316z"/>
<path style="fill:#D8B880;" d="M151.047,368.564l-23.972-13.842c-4.285-2.468-4.244,3.08-4.244,3.08v64.461l28.217,16.29v-69.989
	H151.047z"/>
<g>
	<path style="fill:#CE875F;" d="M506.546,132.172c10.341-5.871,3.25-11.105,0.767-12.605c-0.143-0.083-0.287-0.167-0.43-0.25
		c-0.21-0.117-0.336-0.181-0.336-0.181l-0.001-0.016C397.338,55.7,349.958,28.615,331.901,18.294
		c-0.333-0.16-0.688-0.342-1.078-0.565c-5.546-3.105-11.636-0.792-13.546,0.082c-0.041,0.028-0.065,0.046-0.065,0.046l0.013-0.022
		c-0.149,0.069-0.266,0.125-0.356,0.17l-62.636,36.162l193.245,111.568l57.688-32.741C505.592,132.73,506.04,132.46,506.546,132.172
		z"/>
	<path style="fill:#CE875F;" d="M506.546,197.457c10.341,5.871,3.25,11.105,0.767,12.605c-0.143,0.083-0.287,0.167-0.43,0.25
		c-0.21,0.117-0.336,0.181-0.336,0.181l-0.001,0.016C397.337,273.929,349.958,301.016,331.9,311.336
		c-0.333,0.16-0.688,0.341-1.078,0.565c-5.546,3.105-11.636,0.792-13.546-0.082c-0.041-0.028-0.065-0.046-0.065-0.046l0.013,0.022
		c-0.149-0.069-0.266-0.125-0.356-0.171l-62.636-36.162l193.245-111.568l57.688,32.741
		C505.592,196.899,506.04,197.169,506.546,197.457z"/>
	<path style="fill:#CE875F;" d="M5.453,132.172c-10.341-5.871-3.25-11.105-0.767-12.605c0.143-0.083,0.287-0.167,0.43-0.25
		c0.21-0.117,0.336-0.181,0.336-0.181l0.001-0.016C114.66,55.7,162.04,28.615,180.098,18.294c0.333-0.16,0.688-0.342,1.078-0.565
		c5.546-3.105,11.636-0.792,13.546,0.082c0.041,0.028,0.065,0.046,0.065,0.046l-0.013-0.022c0.149,0.069,0.266,0.125,0.356,0.17
		l62.636,36.162L64.52,165.735L6.831,132.994C6.407,132.73,5.958,132.46,5.453,132.172z"/>
	<path style="fill:#CE875F;" d="M5.453,197.457c-10.341,5.871-3.25,11.105-0.767,12.605c0.143,0.083,0.287,0.167,0.43,0.25
		c0.21,0.117,0.336,0.181,0.336,0.181l0.001,0.016c109.208,63.421,156.587,90.507,174.645,100.828
		c0.333,0.16,0.688,0.341,1.078,0.565c5.546,3.105,11.636,0.792,13.546-0.082c0.041-0.028,0.065-0.046,0.065-0.046l-0.013,0.022
		c0.149-0.069,0.266-0.125,0.356-0.171l62.636-36.162L64.52,163.894L6.831,196.635C6.407,196.899,5.958,197.169,5.453,197.457z"/>
</g>
<polygon style="fill:#B56F48;" points="63.084,164.846 62.789,164.677 62.789,165.014 "/>
<polygon style="fill:#C17E52;" points="255.81,276.118 255.81,53.236 62.789,164.677 "/>
<polygon style="fill:#BC5B35;" points="62.789,164.677 255.81,276.118 448.834,164.677 255.81,53.236 "/>
<path style="fill:#AD532B;" d="M255.707,53.295L255.707,53.295L255.707,53.295L62.789,164.677L255.81,276.118l0,0c-0.001,0,0,0,0,0
	C56.765,160.882,255.695,53.301,255.707,53.295z"/>
<polygon style="fill:#994320;" points="448.834,164.677 255.81,53.236 255.81,276.118 "/>
<g>
</g>
<g>
</g>
<g>
</g>
<g>
</g>
<g>
</g>
<g>
</g>
<g>
</g>
<g>
</g>
<g>
</g>
<g>
</g>
<g>
</g>
<g>
</g>
<g>
</g>
<g>
</g>
<g>
</g>
</svg>
