<?xml version="1.0" encoding="iso-8859-1"?>
<!-- Generator: Adobe Illustrator 19.0.0, SVG Export Plug-In . SVG Version: 6.00 Build 0)  -->
<svg version="1.1" id="Capa_1" xmlns="http://www.w3.org/2000/svg" xmlns:xlink="http://www.w3.org/1999/xlink" x="0px" y="0px"
	 viewBox="0 0 512 512" style="enable-background:new 0 0 512 512;" xml:space="preserve">
<path style="fill:#1E9682;" d="M250,503.603c0,4.569-3.822,8.245-8.384,7.993C106.923,504.135,0,392.557,0,256
	C0,119.089,107.478,7.287,242.663,0.349C246.655,0.144,250,3.35,250,7.348V503.603z"/>
<path style="fill:#147D73;" d="M180,11.491c19.272-5.984,39.516-9.761,60.44-11.018c5.181-0.311,9.56,3.8,9.56,8.99v493.075
	c0,5.19-4.379,9.301-9.56,8.99c-20.924-1.257-41.168-5.035-60.44-11.018V11.491z"/>
<path style="fill:#FFFAD2;" d="M512,256c0,141.385-114.615,256-256,256c-5.279,0-10.516-0.179-15.716-0.494V0.494
	C245.484,0.179,250.721,0,256,0C397.385,0,512,114.615,512,256z"/>
<path style="fill:#FFF091;" d="M512,256c0,130.37-97.453,237.979-223.486,253.954V2.046C414.547,18.021,512,125.629,512,256z"/>
<path style="fill:#FFD06B;" d="M511.882,248.5h-15.869v-81.711c-4.237-11.395-9.253-22.41-15-32.972V248.5h-85v-133h73.998
	c-3.376-5.132-6.931-10.134-10.657-15h-63.341V41.668c-4.887-3.199-9.889-6.233-15-9.1V100.5h-85V3.12
	c-4.954-0.778-9.956-1.412-15-1.901v509.563c5.044-0.489,10.046-1.124,15-1.901V411.5h85v67.931c5.111-2.866,10.113-5.901,15-9.1
	V411.5h63.341c3.726-4.866,7.281-9.868,10.657-15h-73.998v-133h85v114.683c5.747-10.562,10.763-21.577,15-32.972V263.5h15.869
	c0.072-2.492,0.118-4.991,0.118-7.5S511.954,250.992,511.882,248.5z M381.014,396.5h-85v-133h85V396.5z M381.014,248.5h-85v-133h85
	V248.5z"/>
<path style="fill:#A03C19;" d="M170,480L170,480c-9.096,0-16.471-7.374-16.471-16.471V340c0-9.096,7.374-16.471,16.471-16.471l0,0
	c9.096,0,16.471,7.374,16.471,16.471v123.529C186.471,472.626,179.096,480,170,480z"/>
<path style="fill:#FF7D0A;" d="M310,259.412c0,77.319-62.68,140-140,140s-140-62.681-140-140c0-77.32,62.68-140,140-140
	S310,182.092,310,259.412z M178.823,432.353h-17.647c-11.046,0-20,8.954-20,20v32.496c18.095,9.097,37.412,16.118,57.647,20.735
	v-53.23C198.823,441.307,189.869,432.353,178.823,432.353z"/>
<path style="fill:#DC550A;" d="M141.177,465.294h57.647v40.29c-20.235-4.617-39.552-11.638-57.647-20.735V465.294z"/>
<path style="fill:#87DCFA;" d="M170,146.588c62.311,0,112.824,50.513,112.824,112.824S232.311,372.235,170,372.235
	S57.176,321.722,57.176,259.412S107.689,146.588,170,146.588z"/>
<path style="fill:#6CD0F5;" d="M170,146.588c7.322,0,14.478,0.706,21.412,2.038C139.342,158.631,100,204.423,100,259.412
	c0,54.988,39.342,100.78,91.412,110.785c-6.933,1.332-14.09,2.038-21.412,2.038c-62.311,0-112.824-50.513-112.824-112.823
	C57.176,197.101,107.689,146.588,170,146.588z"/>
<path style="fill:#AFEBD2;" d="M337.5,280.5c0,9.649,7.851,17.5,17.5,17.5h90c17.921,0,32.5,14.579,32.5,32.5S462.921,363,445,363
	h-90c-9.649,0-17.5,7.851-17.5,17.5v118.246c-4.933,1.656-9.938,3.154-15,4.512V380.5c0-17.921,14.579-32.5,32.5-32.5h90
	c9.649,0,17.5-7.851,17.5-17.5S454.649,313,445,313h-90c-17.921,0-32.5-14.579-32.5-32.5S337.079,248,355,248h156.864
	c0.082,2.658,0.136,5.322,0.136,8c0,2.341-0.036,4.674-0.099,7.001H355C345.351,263,337.5,270.851,337.5,280.5z"/>
<path style="fill:#3CAF96;" d="M410.383,280c-11.046,0-20-8.954-20-20c0-11.045,8.954-20,20-20s20,8.955,20,20
	C430.383,271.046,421.429,280,410.383,280z M425,340c-8.284,0-15,6.716-15,15s6.716,15,15,15s15-6.716,15-15S433.284,340,425,340z
	 M330.003,420c-8.284,0-15,6.716-15,15s6.716,15,15,15s15-6.716,15-15S338.287,420,330.003,420z"/>
<path style="fill:#FF4682;" d="M490.687,163.882l-78.865,101.71c-0.729,0.94-2.149,0.94-2.878,0l-78.865-101.71
	c-31.367-40.453-27.746-97.923,8.45-134.119l0,0c39.683-39.683,104.023-39.683,143.706,0l0,0
	C518.433,65.959,522.054,123.429,490.687,163.882z"/>
<path style="fill:#C42364;" d="M460.456,99.023c0,27.654-22.418,50.072-50.072,50.072s-50.072-22.418-50.072-50.072
	s22.418-50.072,50.072-50.072S460.456,71.368,460.456,99.023z"/>
<g>
</g>
<g>
</g>
<g>
</g>
<g>
</g>
<g>
</g>
<g>
</g>
<g>
</g>
<g>
</g>
<g>
</g>
<g>
</g>
<g>
</g>
<g>
</g>
<g>
</g>
<g>
</g>
<g>
</g>
</svg>
